<!-- Generated by IcoMoon.io -->
<svg version="1.1" xmlns="http://www.w3.org/2000/svg" width="15" height="18" viewBox="0 0 1024 1024">
<g id="icomoon-ignore">
</g>
<path fill="none" stroke-linejoin="round" stroke-linecap="round" stroke-miterlimit="4" stroke-width="40.96" stroke="#000" d="M511.881 180.4c51.757 0 99.267 4.952 136.917 10.68 47.669 7.251 85.041 39.918 95.683 85.56 12.845 55.101 25.44 138.928 23.278 251.519-2.384 124.236-20.517 213.869-37.999 272.359-4.727 15.811-15.667 23.949-28.041 26.042-12.935 2.183-28.897-2.122-41.878-15.041-23.626-23.519-50.688-48.923-75.641-68.559-12.456-9.802-24.859-18.543-36.36-24.92-10.85-6.017-23.572-11.481-35.959-11.481-12.198 0-25.346 5.374-36.839 11.28-12.251 6.291-25.813 14.926-39.682 24.719-27.792 19.624-58.571 45.048-85.68 68.6-14.308 12.431-31.157 15.372-44.44 11.76-12.82-3.49-23.631-13.337-26.96-30.478-11.431-58.9-22.28-145.895-22.28-263.881 0-117.699 12.13-200.717 24.2-254.16 10.004-44.293 46.132-75.824 92.6-83 37.984-5.866 86.325-11 139.081-11z"></path>
</svg>
