<svg width="149" height="36" viewBox="0 0 149 36" fill="none" xmlns="http://www.w3.org/2000/svg">
<path d="M137.893 7.16116C138.518 7.09205 139.205 7.09839 139.834 7.14509C142.286 7.32756 144.065 8.41272 145.637 10.2491C145.59 9.32629 145.537 8.4165 145.59 7.49235C146.644 7.42248 147.71 7.45557 148.767 7.4584L148.765 20.4935C148.77 23.1067 149 25.9203 148.548 28.4928C148.288 29.9781 147.767 31.4379 146.844 32.6442C145.589 34.2864 144.005 34.9624 142.003 35.2196C142.726 34.3573 143.419 33.4828 143.996 32.5156C145.5 29.3541 145.524 26.2767 145.568 22.8599C144.25 24.4237 142.854 25.475 140.804 25.856C138.386 26.3023 135.89 25.7719 133.863 24.3802C131.891 23.0141 130.57 20.7384 130.161 18.3947C129.71 15.8137 130.227 13.0229 131.745 10.8694C133.263 8.71545 135.343 7.60949 137.893 7.16116ZM140.75 22.7162C144.127 22.0185 146.295 18.7076 145.583 15.3324C144.872 11.9578 141.553 9.80393 138.18 10.5288C134.828 11.2496 132.688 14.5458 133.395 17.9021C134.103 21.2574 137.391 23.4102 140.75 22.7162Z" fill="#649179"/>
<path d="M89.3882 7.11251C94.6136 6.32875 99.4845 9.93434 100.261 15.1612C101.037 20.3885 97.4234 25.2537 92.1952 26.0224C86.9783 26.7891 82.1254 23.1851 81.3511 17.9692C80.5768 12.7527 84.1732 7.89467 89.3882 7.11251ZM91.8766 22.7549C95.2886 22.1385 97.5435 18.8588 96.8968 15.4524C96.2511 12.0464 92.9515 9.8206 89.5508 10.4969C86.1926 11.1648 84.0011 14.4144 84.6393 17.7782C85.2775 21.142 88.5071 23.3629 91.8766 22.7549Z" fill="#649179"/>
<path d="M58.6368 7.15308C59.3797 7.11876 60.1525 7.08189 60.8883 7.20735C62.9818 7.56444 64.0749 8.80929 65.2284 10.4527C65.553 9.92338 65.9287 9.41569 66.3632 8.97143C67.5561 7.75116 69.2036 7.13465 70.8983 7.12576C72.7193 7.11621 74.5418 7.57909 75.8569 8.90582C76.6643 9.73572 77.2296 10.7704 77.4934 11.8982C77.9567 13.8231 77.7581 16.0217 77.7563 17.9995L77.7619 25.2983L74.4548 25.2898L74.4491 18.2529C74.4501 16.6495 74.5966 14.8739 74.2695 13.2994C74.1381 12.6688 73.8885 12.092 73.4612 11.6049C72.8077 10.8597 71.7174 10.3634 70.7288 10.3344C69.5318 10.2991 68.2783 10.6159 67.4116 11.4807C66.8218 12.0693 66.4466 12.8383 66.2439 13.6403C65.7504 15.5934 66.0024 19.4186 66.0093 21.577L66.0325 25.2935L62.6917 25.3134L62.7141 18.2085C62.7206 16.6135 62.8991 14.7936 62.5399 13.2421C62.3765 12.5365 62.0439 11.8644 61.5298 11.3485C60.7875 10.6037 59.7839 10.3331 58.7549 10.3415C57.6511 10.3503 56.5581 10.6847 55.7787 11.4956C55.1467 12.1529 54.7643 13.0403 54.575 13.9245C54.2555 15.4176 54.3987 17.0891 54.4002 18.6122L54.4085 25.3049L51.0407 25.2907C51.2043 23.2883 51.0535 20.5938 51.0542 18.4997C51.0553 14.8427 51.1606 11.1427 51.0302 7.49041C52.1566 7.49117 53.2996 7.53258 54.4222 7.4334L54.4254 9.90079C55.6292 8.39793 56.7483 7.6033 58.6368 7.15308Z" fill="#649179"/>
<path d="M25.9292 7.16544C26.2991 7.1212 26.6908 7.13009 27.0633 7.1264C29.0972 7.10655 31.2101 7.62417 32.6909 9.09195C33.4231 9.81776 33.9164 10.7154 34.172 11.7108C34.6528 13.5835 34.4327 15.8033 34.4349 17.7272L34.4423 25.303L31.133 25.2935L31.147 23.1247C30.1467 24.3443 28.9835 25.251 27.4519 25.6878C25.57 26.2257 23.1091 26.0725 21.3985 25.0694C20.0113 24.2554 19.3282 23.1247 18.9052 21.613C18.7915 20.3499 18.9102 19.1482 19.6221 18.06C21.1455 15.7295 24.2306 15.3863 26.7345 14.9552C28.2099 14.7009 29.6864 14.4636 31.147 14.1327C31.1187 13.3315 31.0021 12.5509 30.5816 11.8526C30.0905 11.0371 29.2818 10.5059 28.3655 10.2835C27.1443 9.98699 25.5963 10.1019 24.5225 10.7712C23.5138 11.4 23.0447 12.3594 22.7712 13.4733C21.6339 13.4166 20.5063 13.4418 19.3686 13.4672C19.699 12.2004 20.0216 10.9829 20.7953 9.90134C22.0616 8.13092 23.8603 7.51299 25.9292 7.16544ZM23.2142 22.4156C24.4711 23.1691 26.0465 23.2797 27.4501 22.9186C28.7044 22.5962 29.9427 21.8569 30.5909 20.7044C31.236 19.5585 31.1567 18.2775 31.1451 17.0125L31.0404 16.9302C29.9489 17.0219 28.8768 17.246 27.7977 17.4275C26.1965 17.696 23.9667 17.7651 22.8104 19.0622C22.3633 19.5642 22.2221 20.1371 22.2784 20.798C22.3393 21.5099 22.6942 21.9561 23.2142 22.4156Z" fill="#649179"/>
<path d="M0 0.347046C1.10228 0.400179 2.20021 0.342882 3.30116 0.381455C3.21626 3.60925 3.45073 6.86664 3.24727 10.0873C3.50405 9.76334 3.75034 9.42885 4.02262 9.11752C5.10533 7.88024 6.7274 7.20492 8.35099 7.13354C10.2228 7.05128 12.073 7.47739 13.4811 8.77064C14.4221 9.63495 15.0608 10.734 15.3859 11.9669C15.8035 13.5506 15.6783 15.3277 15.6776 16.9538C15.6765 19.7249 15.5646 22.5394 15.7 25.3057L12.4346 25.2925C12.3617 22.4676 12.4127 19.6294 12.4053 16.8026C12.4331 15.028 12.5652 12.9226 11.2389 11.5471C10.4185 10.6961 9.30096 10.3362 8.14044 10.3199C6.8522 10.3019 5.61057 10.6866 4.69246 11.6207C4.14524 12.183 3.75544 12.8791 3.56219 13.6394C3.13959 15.2549 3.30646 17.1656 3.30466 18.8324C3.29974 20.9851 3.31033 23.1388 3.33643 25.2925L0.0388582 25.2991C0.000568274 16.9926 0.206955 8.64906 0 0.347046Z" fill="#649179"/>
<path d="M111.606 7.15681C111.92 7.14253 112.235 7.13317 112.548 7.12863C114.362 7.11086 116.181 7.6057 117.493 8.91238C118.348 9.76251 118.878 10.8594 119.155 12.0228C119.621 13.9824 119.447 16.1096 119.445 18.1129L119.447 25.3058L116.079 25.302C116.112 23.6806 116.081 22.0516 116.09 20.4283C116.102 18.3673 116.362 15.1887 115.818 13.2754C115.517 12.2209 114.896 11.2517 113.901 10.7355C112.674 10.0983 111.029 10.2569 109.751 10.6645C109.235 10.9314 108.785 11.2071 108.365 11.621C107.695 12.2829 107.394 13.0634 107.198 13.9644C106.856 15.5404 106.982 17.2564 106.983 18.8608L106.995 25.3124C105.885 25.2916 104.774 25.3058 103.664 25.3058C103.756 19.3751 103.676 13.4277 103.68 7.49442L106.99 7.49026C106.996 8.33822 106.985 9.18693 106.982 10.035C108.184 8.28064 109.584 7.60447 111.606 7.15681Z" fill="#649179"/>
<path d="M46.2509 7.1526C46.9122 7.1231 47.5772 7.13322 48.2392 7.13086C48.2621 8.33695 48.2446 9.54615 48.243 10.7525C47.9928 10.7428 47.7424 10.7347 47.492 10.7282C45.9849 10.6913 44.3535 10.8866 43.2301 12.0065C42.6354 12.5994 42.2737 13.3744 42.0815 14.1838C41.7169 15.7182 41.8355 17.4171 41.8348 18.9847L41.8554 25.303C41.2002 25.3049 39.0873 25.5422 38.5419 25.1735L38.5138 24.8388C38.3888 19.0735 38.4851 13.2765 38.5211 7.50931L41.8981 7.49003C41.8039 8.43451 41.8516 9.39573 41.8722 10.3434C43.1439 8.45711 43.9548 7.71268 46.2509 7.1526Z" fill="#649179"/>
<path d="M123.316 7.49934C124.427 7.50709 125.538 7.50709 126.649 7.49915V25.3058C125.533 25.2935 124.416 25.2992 123.3 25.3247C123.373 19.3855 123.317 13.439 123.316 7.49934Z" fill="#649179"/>
<path d="M124.295 0.342264C124.704 0.318723 125.155 0.269561 125.557 0.365617C126.097 0.494952 126.605 0.888437 126.865 1.37741C127.121 1.86601 127.159 2.43942 126.97 2.95751C126.715 3.64116 126.221 3.99248 125.584 4.28641C125.155 4.31298 124.727 4.33473 124.311 4.20464C123.769 4.03531 123.284 3.64494 123.034 3.13223C122.811 2.68372 122.778 2.16496 122.942 1.69205C123.181 1.01295 123.677 0.650758 124.295 0.342264Z" fill="#649179"/>
</svg>
