<svg width="162" height="136" viewBox="0 0 162 136" fill="none" xmlns="http://www.w3.org/2000/svg">
<path d="M99.3706 74.2115C99.3706 82.7879 91.0995 89.7404 80.8966 89.7404C70.6937 89.7404 62.4226 82.7879 62.4226 74.2115C62.4226 65.6352 70.6937 58.6827 80.8966 58.6827C91.0995 58.6827 99.3706 65.6352 99.3706 74.2115Z" stroke="#070707"/>
<path d="M32.8643 95.625L32.8643 57.7764C32.8643 51.4158 38.9984 46.2596 46.5653 46.2596C51.7549 46.2596 56.4991 43.7949 58.8199 39.8932L61.925 34.673C64.4944 30.3535 69.7466 27.625 75.4918 27.625L86.3014 27.625C92.0466 27.6251 97.2988 30.3536 99.8681 34.6731L102.973 39.8933C105.294 43.7951 110.038 46.2597 115.228 46.2597C122.795 46.2597 128.929 51.4159 128.929 57.7765V95.625C128.929 102.667 122.138 108.375 113.761 108.375H48.0324C39.6552 108.375 32.8643 102.667 32.8643 95.625Z" stroke="#070707"/>
</svg>
