<svg width="32" height="32" viewBox="0 0 32 32" fill="none" xmlns="http://www.w3.org/2000/svg">
<path d="M20.3843 10.8846C20.3843 13.3062 18.4213 15.2692 15.9997 15.2692C13.5781 15.2692 11.6151 13.3062 11.6151 10.8846C11.6151 8.46306 13.5781 6.5 15.9997 6.5C18.4213 6.5 20.3843 8.46306 20.3843 10.8846Z" stroke="#070721"/>
<path d="M15.9997 25.5C20.343 25.5 22.8454 24.3797 24.0062 23.6586C24.5493 23.3212 24.8171 22.6999 24.7618 22.0563C24.6864 21.1773 24.3793 20.2994 24.0665 19.6031C23.656 18.6888 22.7056 18.1923 21.7033 18.1923H10.2961C9.29383 18.1923 8.34342 18.6888 7.93285 19.6031C7.62015 20.2994 7.31303 21.1773 7.23759 22.0563C7.18234 22.6999 7.45006 23.3212 7.99324 23.6586C9.15404 24.3797 11.6564 25.5 15.9997 25.5Z" stroke="#070721"/>
</svg>
